<mxfile host="65bd71144e">
    <diagram id="HIP3nbAZw_EuaXWnEj3U" name="Page-1">
        <mxGraphModel dx="932" dy="755" grid="1" gridSize="10" guides="1" tooltips="1" connect="1" arrows="1" fold="1" page="1" pageScale="1" pageWidth="850" pageHeight="1100" math="0" shadow="0">
            <root>
                <mxCell id="0"/>
                <mxCell id="1" parent="0"/>
                <mxCell id="7" value="http://ics2o.mths.ca" style="swimlane;whiteSpace=wrap;html=1;" parent="1" vertex="1">
                    <mxGeometry x="20" y="70" width="760" height="480" as="geometry"/>
                </mxCell>
                <mxCell id="8" value="Random Number Generator, in JS" style="text;html=1;align=center;verticalAlign=middle;resizable=0;points=[];autosize=1;strokeColor=none;fillColor=none;fontSize=18;" vertex="1" parent="7">
                    <mxGeometry x="10" y="35" width="300" height="40" as="geometry"/>
                </mxCell>
                <mxCell id="9" value="This program randomly generatres a number from &lt;br&gt;1-6! Think you could guess the number?" style="text;html=1;align=left;verticalAlign=middle;resizable=0;points=[];autosize=1;strokeColor=none;fillColor=none;fontSize=14;" vertex="1" parent="7">
                    <mxGeometry x="20" y="90" width="340" height="50" as="geometry"/>
                </mxCell>
                <mxCell id="11" value="Your guess:" style="text;html=1;align=center;verticalAlign=middle;resizable=0;points=[];autosize=1;strokeColor=none;fillColor=none;fontSize=14;" vertex="1" parent="7">
                    <mxGeometry x="20" y="170" width="100" height="30" as="geometry"/>
                </mxCell>
                <mxCell id="12" value="3" style="rounded=0;whiteSpace=wrap;html=1;fontSize=14;" vertex="1" parent="7">
                    <mxGeometry x="130" y="170" width="160" height="30" as="geometry"/>
                </mxCell>
                <mxCell id="13" value="You guessed correctly!" style="text;html=1;align=center;verticalAlign=middle;resizable=0;points=[];autosize=1;strokeColor=none;fillColor=none;fontSize=14;" vertex="1" parent="7">
                    <mxGeometry x="20" y="245" width="170" height="30" as="geometry"/>
                </mxCell>
                <mxCell id="14" value="" style="shape=image;verticalLabelPosition=bottom;labelBackgroundColor=default;verticalAlign=top;aspect=fixed;imageAspect=0;image=data:image/png,iVBORw0KGgoAAAANSUhEUgAAAgAAAAIACAYAAAD0eNT6AAAgAElEQVR4Ae29a8wl1XnnC+JDjDE3d2NoNbS7QwOm3Q5x2gaTxk5siJwE7MzYxCaiLWcMTmMFazQG48jY0pnBsVDgaOLYRLHJOJqBD4nTUWIFlETp6Ngio+iYKDNxOFFGE2ZyISeyzHEuRjISH+rkV/SzWbveqtpVtatq713790qlVW9dVq367arn/6xnXeq00/yTgAQkIAEJSEACEpCABCQgAQlIQAISkIAEJCABCUhAAhKQgAQkIAEJSEACEpCABCQgAQlIQAISkIAEJCABCUhAAhKQgAQkIAEJSEACEpCABCQgAQlIQAISkIAEJCABCUhAAhKQgAQkIAEJSEACEpCABCQgAQlIQAISkIAEJCABCUhAAhKQgAQkIAEJSEACEpCABCQgAQlIQAISkIAEJCABCUhAAhKQgAQkIAEJSEACEpCABCQgAQlIQAISkIAEJCABCUhAAhKQgAQkIAEJSEACEpCABCQgAQlIQAISkIAEJCABCUhAAhKQgAQkIAEJSEACEpCABCQgAQlIQAISkIAEJCABCUhAAhKQgAQkIAEJSEACEpCABCQgAQlIQAISkIAEJCABCUhAAhKQgAQkIAEJSEACEpCABCQgAQlIQAISkIAEJCABCUhAAhKQgAQkIAEJSEACEpCABCQgAQlIQAISkIAEJCABCUhAAhKQgAQkIAEJSEACEpCABCQgAQlIQAISkIAEJCABCUhAAhKQgAQkIAEJSEACEpCABCQgAQlIQAISkIAEJCABCUhAAhKQgAQkIAEJSEACEpCABCQgAQlIQAISkIAEJCABCUhAAhKQgAQkIAEJSEACEpCABCQgAQlIQAISkIAEJCABCUhAAhKQgAQkIAEJSEACEpCABCQgAQlIQAISkIAEJCABCUhAAhKQgAQkIAEJSEACEpCABCQgAQlIQAISkIAEJCABCUhAAhKQgAQkIAEJSEACEpCABCQgAQlIQAISkIAEJCABCUhAAhKQgAQkIAEJSEACEpCABCQgAQlIQAISkIAEJCABCUhAAhKQgAQkIAEJSEACEpCABCQgAQlIQAISkIAEJCABCUhAAhKQgAQkIAEJSEACEpCABCQgAQlIQAISkIAEJCABCUhAAhKQgAQkIAEJSEACEpCABCQgAQlIQAISkIAEJCABCUhAAhKQgAQkIAEJSEACEpCABCQgAQlIQAISkIAEJCABCUhAAhKQgAQkIAEJSEACEpCABCQgAQlIQAISkIAEJCABCUhAAhKQgAQkIAEJSEACEpCABCQgAQlIQAISkIAEJCABCUhAAhKQgAQkIAEJSEACEpCABCQgAQlIQAISkIAEJCABCUhAAhKQgAQkIAEJSEACEpCABCQgAQlIQAISkIAEJCABCUhAAhKQgAQkIAEJSEACEpCABCQgAQlIQAISkIAEJCABCUhAAhKQgAQkIAEJSEACEpCABCQgAQlIQAISkIAEJCABCUhAAhKQgAQkIAEJSEACEpCABCQgAQlIQAISkIAEJCABCUhAAhKQgAQkIAEJSEACEpCABCQgAQlIQAISkIAEJCABCUhAAhKQgAQkIAEJSEACEpCABCQgAQlIQAISkIAEJCABCUhAAhKQgAQkIAEJSEACEpCABCQgAQlIQAISkIAEJCABCUhAAhKQgAQkIAEJSEACEpCABCQgAQlIQAISkIAEJCABCUhAAhKQgAQkIAEJSEACEpCABCQgAQlIQAISkIAEJCABCUhAAhKQgAQkIAEJSEACEpCABCQgAQlIQAISkIAEJCABCUhAAhKQgAQkIAEJSEACEpCABCQgAQlIQAISkIAEJCABCUhAAhKQgAQkIAEJSEACEpCABCQgAQlIQAISkIAEJCABCUhAAhKQgAQkIAEJSEACEpCABCQgAQlIQAISkIAEJCABCUhAAhKQgAQkIAEJSEACEpCABCQgAQlIQAISkIAEJCABCUhAAhKQgAQkIAEJSEACEpCABCQgAQlIQAISkIAEJCABCUhAAhKQgAQkIAEJSEACEpCABCQgAQlIQAISkIAEJCABCUhAAhKQgAQkIAEJSEACEpCABCQgAQlIQAISkIAEJCABCUhAAhKQgAQkIAEJSEACEpCABCQgAQlIQAISkIAEJCABCUhAAhKQgAQkIAEJSEACEpCABCQgAQlIQAISkIAEJCABCUhAAhKQgAQkIAEJSEACEpCABCQgAQlIQAISkIAEJCABCUhAAhKQgAQkIAEJSEACEpCABCQgAQlIQAISkIAEJCABCUhAAhKQgAQkIAEJSEACEpCABCQgAQlIQAISkIAEJCABCUhAAhKQgAQkIAEJSEACEpCABCQgAQlIQAISkIAEJCABCUhAAhKQgAQkIAEJSEACEpCABCQgAQlIQAISkIAEJCABCUhAAhKQgAQkIAEJSEACEpCABCQgAQlIQAISkIAEJCABCUhAAhKQgAQkIAEJSEACEpCABCQgAQlIQAISkIAEJCABCUhAAhKQgAQkIAEJSEACEpCABCQgAQlIQAISkIAEJCABCUhAAhKQgAQkIAEJSEACEpCABCQgAQlIQAISkIAEJCABCUhAAhKQgAQkIAEJSEACEpCABCQgAQlIQAISkIAEJCABCUhAAhKQgAQkIAEJSEACEpCABCQgAQlIQAISkIAEJCABCUhAAhKQgAQkIAEJSEACEpCABCQgAQlIQAISkIAEJCABCUhAAhKQgAQkIAEJSEACEpCABCQgAQlIQAISkIAEJCABCUhAAhKQgAQkIAEJSEACEpCABCQgAQlIQAISkIAEJCABCUhAAhKQgAQkIAEJSEACEpCABCQgAQlIQAISkIAEJCABCUhAAhKQgAQkIAEJSEACEpCABCQgAQlIQAISkIAEJCABCUhAAhKQgAQkIAEJSEACEpCABCQgAQlIQAISkIAEJCABCUhAAhKQgAQkIAEJSEACEpCABCQgAQlIQAISkIAEJCABCUhAAhKQgAQkIAEJSEACEpCABCQgAQlIQAISkIAEJCABCUhAAhKQgAQkIAEJSEACEpCABCQgAQlIQAISkIAEJCABCUhAAhKQgAQkIAEJSEACEpCABCQgAQlIQAISkIAEJCABCUhAAhKQgAQkIAEJSEACEpCABCQgAQlIQAISkIAEJCABCUhAAhKQgAQkIAEJSEACEpCABCQgAQlIQAISkIAEJCABCUhAAhKQgAQkIAEJSEACEpCABCQgAQlIQAISkIAEJCABCUhAAhKQgAQkIAEJSEACEpCABCQgAQlIQAISkIAEJCABCUhAAhKQgAQkIAEJSEACEpCABCQgAQlIQAISkIAEJCABCUhAAhKQgAQkIAEJSEACEpCABCQgAQlIQAISkIAEJCABCUhAAhKQgAQkIAEJSEACEpCABCQgAQlIQAISkIAEJCABCUhAAhKQgAQkIAEJSEACEpCABCQgAQlIQAISkIAEJCABCUhAAhKQgAQkIAEJSEACEpCABCQgAQlIQAISkIAEJCABCUhAAhKQgAQkIAEJSEACEpCABCQgAQlIQAISkIAEJCABCUhAAhKQgAQkIAEJSGA6BLLTTjstXaZzZ96JBCQgAQlIYAMJpKI8lfUN/BkssgQkIAEJSOAlAlMR5E27j5d+AdckIAEJSEACHQhsmvBZ3vlmijoeHR4HT5GABCQggSkQqBMH9zUX0qmxmsKz7T1IQAISmDyBqYmP97N+jsfkXyJvUAISkMA6EVAI108I/U3W6Q2xLBKQgAQ2kMDkheSsM87I8uWss7LdL3/5bLn4Fa/I10nTdY6J/+P4+L+Yxv44p24/x5x1qgyks3JRvrPOmvzvUBi22Pf9buCrZ5ElIAEJDEugb0PbS36pICOaB88/P/veCy/Mvv+SS/Llpssuy378yiuzSFk/9rrX5cudb3xjxnL3tddm9775zfnywA03ZLE89CM/kv3yO96RL4/+63+d/frNN+fLb733vdnjP/ET2R+8733ZV9///rmUbbHEvvj/D//Nv5ntS89N9xfP4f9YuGZcm/VYolyRUtb//GM/lpc7Uu6D+/nM29+efeqtb80X7pl7h8Htr399ziRYXX/gwIzhkT17ssOvelXOFsbhnOTOxykHZGBR7uVZaVHGYd8kc5eABCSwhgTGNrT59aL2GwKO4CDgiNC/uuKKXJgQKMTq3//AD+TihaCFKCOgiOvXbr89+9Pjx7P/eeed2V/923+b/b//7t9lz95992z553vuyb7z8Y9nxZRt6RL7021TX+eeYwlm8INlLLCFMUs4MzghOB7hdOBk4EDhZKQOBk5XOBf8tuFU7HAozjhjJc9ghXOwhq+oRZKABCTQjcCoxjXC2dTKMfgIOiJAjfPH3/WO7D/94A/mNVVEJGq5iAzizYIQhShNXYCnfn/xO/KbhmPx/3zoQ7nDVnQmcO5wInD2cPoiOkEUJyITRHl4riIakTeL9O88dHvLPEsCEpDAiggMKvLR3ozBxQBHTT2EnVofYWZqhAg7xj1EHcOPEExd7Ly/+YhKHzyqHAiiEdFsEpEInAeeQxxNIkg8o5ee6jdRUdOve2dW9Bp7WQlIQAL1BOoMV+d9qbhT6yJ8S00Mw0qbMoaWsDvGl/CwNfX+Ba8P0TSPj+fPJo4nzyrPLVEFnAKc1xYdJuvfQvdKQAISGIlAZ2Gn9hNh+QjJI+7UlDCM1NwxktTcMZjRjq6QKPDr9AyURZEiQoDYx4JjWlZutvN8E6XCsaVZgfeiJjow0qvtZSQgAQnsJFBnnOb2EaLHmCHw1N6j8xy1d9pWIyyf1tzLjKTbViv6ZSLX528Sgpmmaf6IZER2Yh1hZT0EljQ6CJJGJ8G0TZ/nLV0YxYCTGUs6SgEHlIVnNR2pQDg/7VCYjlrg+ab5KToYRh8Bwv48/+RFOdN7K66zH4fgI1ddlQ+prHAEdr6VbpGABCQwEIE5Ya8wSvkxCD41eYwmIk94XoFfrYAjMiHipKmIIjjR0TEVUESIJQQ02rZDQFPxpPYaC7959L5H8FhS0fzI1VfnUZ5UOKNXPuFwhJKF9fgfIU3FNHru41jSAS+GBRJK39EZj6GByfBAnFKe3+g/UvcsD7GP96Io+sX/+X1OXHVVdunpp1e9dwO95mYrAQlI4EUCVcandDuGmBAmohFiUzRsm/B/1EKjrGWCGaJJmopmrIdwRoqIhoCmwwRZLy4Ia7qEsJJGDRWBjYVaajrMjd8AcUVUU2EtimiIZ/RgT0U07c2OQ8eSjrMPER1CIFedZ9xbOA3hKPB/yiLWU1YxjDC2Fe+F7TwL8WyVpTxvf/j935/94mmnZYerZ2rURklAAhLol0AYv6LhqvofI0htDAEqCn8qpCGiCGa6IJjUPkM4SRmOxYKhjCUVyaiBkhK6DYGk5hm1zzR0S3+CCNlS+yRMG0uEa9M0ap4I5g+++tX5/XGPUetEKItimRr+MP4hmiEUMyE5NYPfy172XbNaaOxLObONY9Jt67y+6NmJe8zTU7XyYENaZEhNPliTxm8QaTg0ETFI/4/fEwcofmucIpyjiEbwzEaEgueFZwcHK5ZoFogUpyx99ngmy5w63gPyopzp78U9sL1M9GPb3912Wy7+XzjzzOyBegeAvP2TgAQksDSBOUOVGq2qdYwZBhXjiKAj8GHE+J/tGOYw1lHb5LwI0zIUKjX6qRik68WaWFWZNmF7lUiGM5CnSU0znIngBDtq7BH2JoUxfIM1TkuIYaQRSo/QeggkaSqSqVjy+7LgNIVoFlOcKxbElAUhjcgEYhdRC9IQUtKikCKm4ewhoLGkjmE0U6QOZDRlFNN4HiONZ3PolLIVxZ9nGa7cU9X1/78778z+4u1vz7500UV5zZ/aP8vR6giADsDSZs8MJLC9BFqLPoYMAaHWhDErGleMMMYdQeHYvgU5apCpc8B6USRDLCMN0cT5YCkKaCqeiGiIJmnULknrRDPEkjStZSKYUdMsCiQ1zYhehDgWhZEaJsIYgkjHtlQUWQ9hjBQR4rdAVIrCyP/8bsXfLt2WrodgFY+P7V3SPvPqcv2hzuF3QujTZ59nDYcA7mXXTYWfWn8IPykRgOt1ALbXQnvnEhiAQCthRnSjtk8IFHEpGjKMG8JVFP49F12Y1yCLtcay/yMUG2JJTTLCsmntsRiG5boRikUsi4KJcNKcEE0LRfFM/09rliGiIaAhWpGmDMq2pftdX30HyCF/A54Voh6IfTi9RK3qav08M//9ne/MHj90KCsKf+oE3FzvAHA9/yQgAQksJDAzTmGk6lIMGLVeRJhaZ5nIsQ3xpdZLbTvyYx3jx76qmg8GOfIk/ec773yxZnrnnXnN9R+PH89YqCGxj/X8mDiupBY7pJE372mLeNfft6rWj0NQ9ex/473vzf7wjW+sFf5wAm7TAVho2DxAAhKoJjAT5hDoupRwOYJOSLqsth/CjeGjbTgVfkKfRAGolafGLxf4U4KNkNPR6b+95z358nc33pix/M311+9Y/uotb8lY2Ef7aBwT55w4NT6bqAA1+XAouhpzz1Pkmz4DUeun+Sjep6j1E4Uqy4d3oqydP8S+LL371HDFuEZJWv3mu0cCEthaAjPDVGI05vYR5qftm9A8wl4lpGz/Xz/5k/mHc3AUIl86rtHJjFB9CD9RA9o+aQ9/6OjRPNyJcP/vN785X/7s2mtn64h8bI+U/bF8/Zpr5s4Jx4Ba1D3792c3vPKVeW99rsV1y4yv2xT3vp6Bslo/jgDPe5nTjHNKuL/Ywa9M8Ivb7mW2zMUfFdpaI+eNS0ACLxGYiXKIc11KjZ0wP4YLI1VnIBFW2uevO++82TWo8dBRjmYCOqBxPinH4VBw7L0HDuThzhD2SBF3BJzJTh4+dCh78PLLczG/fe/e7OZXvSq78YIL8vOPnn12niLybL9t1648z89ccUV+7p+86U3Z15hY5pJL8nHqRCDKjHDdvblP56DJM0BzVLGtn3co2vpTx5l1IgE41T+6b1/20UIHv6LQV/1PR8C9OgAvWTjXJCCBUgIzYa4TffZRe8do1YX5wyDiGNBBjxpODGEjRfgxhiH8HE+HOwQY4UesqZ1HTf/kkSO50N+1b1++j2Nee2q4G44Ey+7du2bLxXv3Zt+9f1926DWXZ6yzrzgmnuYHHIOIAnBvODQ6ADsFPfpPPP4bj9Q6evG7m84zjFo/z2m8Xzi5jORIhR9uOMsIfz7q5LTTsltP9eivEvm67Q3mAqA8/klAAltKYGaQwjBVpYj4ojB/GH6EHYFH6CM/BJgx5mwvRgwQXYbJIciPvf71udgfOfvsvGZObZ4x/zHG/eCll2bXXXc0u+P4B7P7P31f9uijj2aPPfZYdvLkyXx54oknsieffDJfnnrqqTxl/4kTJ7LPf/6Xsrvvvjs7duxY7hxE2UipKeHUxD2YzovYVHiEMzPG/fAeEOFCzONZo9ZPP5licxPHhrPMs0gP/vtOjeevE/lF+xbMBaADsKWG39vebgIzgxSGqSyN2nr05l9kNBFymgSoSac1bmo7GDeG1JXlgTEkskBtnLA+oXxqSwwFfN3h12a3vOfdudgj4oj7s89+M3v++e9kL7zwQuOF4zkPZwAngOhA3DPRACakKdbGysq6SdsQO2vt847MWDyo9RPRalLrpyMq7wzvG9P33tmD8Idj4FDA7Tb03r0EUgIz0QvxK0sR77IwfZX4Ifx04qMWnwo/UQOEtUr4Iz/C/xxLTZ+UGjq1dWr1Tz/9dPbcc99uLPQ4BYg95zzzzN/mDgNRAkT/huvfljcHpPdM7QynZWriH2xN5x2AoXnwLjSt9XMsjjHPPeJ/4xLh/hD8YkoTQvq8l6yn9sF1CUhgggQWGYF8P+IdHfvS9vkqo0mvfWov1HQIbYZxQVRpLiiGOavyYTv5IP7UmAjxf/LjH8vD9tT4cQIQc2rw//QP38rFnXUW9hHqJ/RPhOCBBx7IxZ6oAfnQByB1SmKd8uKwMOywrlzuG1dAN5k3HffyWn/S8Y7oF85x0cGMPi8IP1/tY8x+Ubz7+J9oAteId7MknaC585YkIIEgUPfy5/sQQ4SfTklNhR/hpDNgKvyE8RlOh3ErGrwmhp3Jf4g8RJ7nnXduLuA0AyDm1OBvuumm2cK2N77hSEa/ADr6peHWoqHDCFI+8sc5weGIYYdNyuYxOgJVz0Cbtn7eC549+sPwjB457bSM4Xp9iH1ZHg2GAoadMJWABCZEYKHwI5gxBp9wZJWBS7dTyynO3odgs412z/TYLusMl6IzHvlRe4oe/FFzLwp78X/uiTZ9ogmIPTUyBJ9aGI4J99nFOelyL54zDaehquMgz9Gs1l/Sw7/oYBZD/szVT0/9MuHua5tDASdk0b0VCTQgsFD4EWyEnxp/E+HH0CGeCCm16BBd8kFgh6pNU7PCqUC8aVelvZR5AigHC9EGHAVS9tGWT2QihB4DXDTCivI0RHns37HYeZBnk2eu+D7wPPL8FctHPxj24cgyOc8yw/vaOAcOBWxgMT1EAhMgMBPmEOiylFo1Qtkk1E/Nh9n7PvC+W3YMZaL9nJr6mAJbVXOv2l40wv6v+PfxDFDr5/lPm5x4r8rG9XM9mrZoYuN9pL2/z17+i5wBHACaGcpsQbJtAubPW5DAdhJY9HLn+wmJU2MpjsEvM4gIKsdR6+a8MBQYvDZ9Bcrydlv/IoyjJtf+uRaZltX6aW4iAlU20gXnGKeAL/3RB4Ux+UO291c5A84FsJ3C4F1Pm8BMmEOgy1JClITLCUs2qSlj5BB+ajTRe5iUTktsj8hBk7yKBtT/hxEpx/sPwzWeV551avF5rT/pUc87QRSs7F3AgcYxoJmMkD/j8bu29xMx6HouTgF9DcpsQ7Jt2pbSu5PAhAgsepnz/Rie+KxumYEK4xYpfQFoGqDjXAg/BiIiB2U1nDjXdKcANWG+bdxgEh3q8vTU/3CI/9eNSVmtn3cLp7pqmCv9UOhjw3u0bMg/Qvh82a+qhr9ou5MBTcj6eytbTWCh+GN0CNM3bZ9H+Olkh8FKagR5mz+T+FQZuXUz1MuWp0/BpsMYgrZsmTb1fJ4pRnN867bbMr5fz5J+kjk+zZym8ZnmOJ5zyYOFNnciWDihTTqt9sGN56Gs1o+DXPVu4SzQSZWoG+8hofdlp/OlySCmBg6hbxsNcDKgrdYMb34CBObEORXqdJ2wPWH6JkaS9kl67xPWpEYT+WC8CF2W9WTuw7Cuax7bLNjL/iY8b9R6ae8+ccMN2f/11rdm8dllUr7vwBcX4wuO8ZEnvu4Y+/ngU5wT2/mf9dtf+9r84088mzi3OKY4BUN1QCV8X9bDn1p/WSQMZwGngLJFrR/RDcFeJsWBoAmBMH7k03YEAZMMxftdkU7ARHoLEpgegUUvbr4fAa8aflQ07hhNajbFSXzSJoPiOdvwf3GY1zbc87L3iJOIUH7kqqvyzyzzHYeiuIfA832HRw8fzj/4hNjHp535JDMffOILkLGtmPLJZj75zHF0ukPESKOJa9n7SM9Pw/chllHrL4sS4RDgGFAexB+h7rOjXzgARBNwAKj9s94mCuBsgNMTBu9o+gQaiX8MP1pUG8J4MaYeRyGt8YfwY/gW5ZEaStd3tvsvy2RTmg5oFkL0+FY9NXtq+EXRxhGgxs8+HINPHTyYi3h87hmHgAXhRzwJc/M/n3z+xIUX5sc/fOhQfj4OA44CeT5+6FB+DF+LRKCZdppI1rLsqfUTWSDKEMLPJ6d//F3vKB05w7tCrR/nIC/HaacNMp0vzgSOBR8JQvT5n/U2Tgb9B4gixH2VpNO3pt6hBDaEQN2LOtuH0SRUv6iNHuGnpobwc068/Ag/7f5V7ZnLGtQm5+cdv/xi3Zx4rXtTBKF3er9TG0egEeWvX3NNLtTU0nEIEHU+7YyA8swhPohYPHtNU87hOeVjOTgOx/bsyR0DIgk4FVyL/TjByzRZERGLTntRNsL5OBZltX6chbTWz0d82ghyhPKbpEQAcI7CAUDM6VjYplNgRBHi3krSDTGNFlMC0ybQyEhGSHJRjT1qammtJg9THjiQ9/hv0legiZB7TP/RgHVkyvOE+CPw1OwRYmrtiDNCzCx3MWVzpDxvzB8R33Xguw18v4HvOPCNBz7L/N379+XffGDaZxaOjfNLxCq/Ftfk89E4BVyDpoi2zBDy6LQX18FhqfuCZeosDPkRn3AOqPUj/lyLdYQfh6CNA8B5nBP3WJJO26p6dxLYAAJ1L2i+D+NEzQPDVWfsaJfEIBIejZcdg4rj8NCP/MhsLH9dHu7bDlFv8zvzTCG21P5ZEH2eL54thBth52NNdxz/YP41R77MyGed+Uojn3bmi418uZEvO7LwJcf4miNffWQ/xz322GMZn3C+/9P35Z+GxlnAccCRKDoGEdXivWh6L9TqafKKTnvxjvB+VNX6OYdhskzqw/G0ww9V6w/xj5RrLesAcH7cZ0m6AebRIkpgmgTqXsx8H0YXY4XRKgtJhuGLSXzmZu+jY5LC31gcgqXpTgcI5zHEg1o6X2e8++67c7FGvBFzPtf8/PPfyV544YVZynrXhbxwFnAc4nPPOBhcmzJQHhwRhrI2+c14R/KprZOe8YscayJtRAq4DjXpZSb1CVFvk9KxMJoAcDraRgC4FufHb1eSTtOyelcSWHMCdS9lvo/wPTWvulo/BoraSdXsfXXnNjGaHrNTDLeRCZElho1SC8+nhb7ppoxaPuKPSCPWfYp/0Wl49tlv5tfimkQaiDogZvRvWdQcxu+FA33L/v2z/gg41nW1fs75u9tuyz5y9dX5OYjomPP4h5OAw5EOAyQi0LYcnFMi/LFtzc2kxZPA9AjEy1eaYpwwthitKrGhDZ9OfGkHJjpc0T66yGmoytPtin3dM4AzGR3gEBScgYvpB3Dd0Txc/8mPfywP+xPCj9A/4f0I/SPisTz33LezWGJbNA1wPI4FzQE0I4mdg70AACAASURBVJAvos+1eDe4Nk4IcwQs6ghLmcva+hc1p9GxkK9dcj0ElM50Icpjplw3vTbj+tv0AaCsOBA6ANMTEe9oMwnUvYx5z2kMVlXNnWaAovDzctPmT3iTmlpdU0GdgXefDsCiZ4DaNm3ljEIh6hR9AVKBiSgBtXREO+38R/geMU8XtrHgSNCXgOP3XHThLMyf5s31cHppkqjryMo7gAPNsen5Ueuvixp89f3vn/URQDzpSDem6Nddi7K0LQ8jFVIGhfXNtKKWWgIbSKDuRcxDklVt/Ris2fSkZ501y4dhUts4e98ioXL/8M4Mbeo4A/Scp7aMuNJsVeYUFERn9vzWbaeWT37kS/7U2nk/6oSf3z0iFekImEVt/fG8kH/u2Kygvb9O+JfZpwOwgUphkSdHoNLoEWakLZPaexiiNCXMWTd7nzX+4cUu/T1c38mbZxBh5lnFUaVjHk1RiDbPNgLOQo2cTq2x8D/NXezjGWfhHGr4iDH5kW9djT1+D8oQQ/VSx6JJJ1rOJbJGJI2OdoTalxHddTpXB2ByWuINbRiBSvGnZkLIv0zEMXoY0RjuhFEjvIqxxDg2MYphHMdOy+6nrgzp8VUT4qTHFPNiX+yP9fifY4vrdf+nx3McnItLHFPcHv8jWnULtWdqqqTpghMY20lZEEHapJnNMV0IVceC8MXCsxHb05T97IuF2nusk/I/IsiSrsc2Uub8Ly6IPQuiXbXwnQqeZaIFLIg8C+s8/+m22FdMcSSIdqUp6yw4DrwXXWr9fHTooaNH8/eMIXNtO9mtk9iXlWXBFwE3zJRaXAlsFoFa8ccwpmKUChsGMK3JEFrF2GHIQxBYRxQw9KyHwWedJTXwsR6Gv8rIpwY/jDtGP9Yj5ThGIJQZfbZzb+zD8GPkY+H/2BZpCMDPXX113pchNf6xD+OfLhwTYhDCELXINE1rl6zHQs0zap+xXkypocZCTbK4ntZkY52Qdd3ChDqEmYsLQzgZa04tNF1H1NIFh5D/eR5iYRtD4+L/YpruI7Qe+4k+sc62vO3+1Mx96TrH8H/6LIYzGts4JtbL0uL58X96Huvxf6Tpcek2tpcdz7W5H35Hnvf0fSpbR/x55jiHnv5tO9iVCe66bVvwRcDNsqaWVgIbRKDSKGKw68SfWl9am8GwYfQ4jyUMeLoe2+pSjGbsZz03pGedlRvT1KhyTBjcMoPOtqr9sT3SumOr8l60nbKyFI9Lt8V6pFXHUk6WOC79n22IY2yLdbbnjE6JKfv5P36P+J1IU/FO1xF6ltgW4s821llwBMoWnAe2Rxrr4VTgZLCEI8L2cFAi7B5pOEGp0xTrqYOVOmWxjlMXtftw7Ehx/HACw0GM9XAey1IcSpzScFDDYU3TcGzLnFvO57qcT/SlTPDTbXnN/8or85D/kREn9xnbQVjwRcANMqcWVQKbQ2CHOIUAIRYYzqqaP0YKA4ZhxThjxDHgYdBZD8NOGoY8aqecE9tYD2MeKUad8c2k6UItOgx7mlLWMO7pemyrS7mHEIhYL0tTwUAsiDiEaBTTsn0ICgJQTNmWLqnAFIWm6v80uhICxDaiMBGJIcVpi7B9hPLTcH4a9i9rHojmg0iLz0c0R6TbYz3SVOBivWxf2TaOL9teti3y3tQUxkxpjDi2/cTu2AK+7PV0ADZHNCzpNAhUij9OAELcpIYSxhUDjMFKDXRqlIv70uOK65HnojTNf9Gx7t/ZKU4m68uEmj9fK1xWWDflfBwAKh1RASmk07C43oUE1ohA1cuWh2GpKSoQ6ysQ/jbT/W1wbP/w+79/a8QfJ4VOjQXRT/9fI7NpUSSw+QTSl2tunXZaQsirEBiiBBF2jlA0jkj0Ko9QdoS4I432V8LjaSg9XU+P4bz4P00jP9IIqUfnxQilpykh9OIS4fU0jWPIK8LwcS+xLe4x7SAZ61GWSNMyp+vRPBAc0v9jG80P0TxBk0YsNGEU19mWtoMHz8iXawcryhZsommB35Dfk98VUTNis9hpgRfi/4Uzz9w6B8AIwOYLi3ew/gTmBD/1unkBEYGhxB8hQBgRCsQDIaJtnnZ9er1HB7DoJEYHMzqfpZ3V0g5s0VEwOrrlneFOdZbjXopL8Xj2x7a841zS8zyuw37WmcyoWJboGJem0Wku0ugoF+dGSp5l61Ge9PpRhthHWix7cV9+70nnP37n6EAYafrbN1mf8Uw4xXUpb9wT98V9Rz8Q+nrEKIfow8HvzrPGM4BjwfOAE4TzkDoNQz2L65gvDtJ/+sEf3DrxJwLAyAaer4rncP2tqiWUwIYQqHrJ8s58GN9ljSMij0Gn9lgUeCIMIW4VL3tl+Ty+Nky6sdzCmQkHIhwHnAY6gNKpk2gEjkJEGnjGeFanFFXg/m4855y1q/mPEY3QAdgQ9bCYG02gUiQwvoRzlxV/Oi/Re5+aYVfBntU0kxo6HxHKa5ukVeunPofKvTBTGgvr8X+ki7ZT23/tWWftWMq2Hzn77KzpwkeQ0qV4XvGaZddj29xy+umz/7kv9lXdX/H+OS5q8LO0hm/+u6TDDU9FWTg3/c1Y7/rb151HvlyLeyTCwogTogt0WGVECCM3cDqL0YRNcBKIjnEvzIi3KR33+iwnnxHmva74/Tfa6Fp4CawLgaoXLA/DdzGUzIj3rdtuy77x3vfmy99cf30+dOneAweyOy+5JLt9797K5eZXvSrfx3Ec/6mDB7MHL788e+hfxj0/fOhQ9ujhw/ly4qqrsqbLycOH8+szfKpuqTuO3tdNlq9dfXXWZvmTN70pY/mza6/NU9aL56fXZV/6f6yfPHIk3/7Vq67KzydlYX/sI21y/48fOtSI7ey3uOyy2e8S2yLlN4uF3/AzV1yR/578tnft2zd7Ho7t2ZPx2994wQX5glMUzhBOUDgx4VhUiELls8x5ODs4CUQTiCTgINDcQDMD0YMuz/qyznHd+fSroMxjzPA3Ro2+rXOgA7AuEmE5pkqg0mBiKMMw0gZbNI78ny933pn94/HjM8H/uxtvzBD8v3rLW/Llf7/5zVm6sB2xS7fVrUc+pGXHpfuL6xwf2+Lcqnxif6RxXKRpXmmesR5pnB9pnF/cn26PY+Ma8X8cE/8X96fbYz2uU3Zum/PL8ivLM65XPD7+b3LN9FjWeT7CIQqHJ5wXHAscinAk7tm/P3cicgfi3HPzaAqOAw4D4onwU4uMaETRcWA7x9EMxdwTOAVEDHAI6sR56H28W3w2mIhM+lndpiK6joLetOxxHPdtBGCq0uN9rQOBSgcgDCK1JcL3/+0978mFPmr1pAh9ndgXDXuT/8tEpu68Lse3OScErs05aXm7npfm0ed63E/TPNuWv+3xTcsRx5Xl//VrrskdPVIch9RpIJoRTkPqOBBVIrpEJAInIo1G8P+XjhzJ/tdP/uQOx3do4Y/8qf3jvPBZ3xDEsdNVOxELHABsl38SkMASBCodAGpGR88+OzeQf/H2t8+JfRjjMdMyw8/12V61r4/yDZ1/H2Vsm0cbXm2ObVuOLsdX/R5Ntre9F557Ilo4u8UIWAj1EGle+3/96/N3k8lwxhb+dbnegiYAHYAlDL+nSqBS/GlzpXZETaqLkd6Uc9oKwhD3tQ5l6HJfm1rutvfKfbKkjkCfzsDjv/HIjqYGmtxogiP8jQiuiyCPXQ4jAIqUBIYjUOkAEB5taiinLARTvremv+8Yx20KZ5oX+AIfw1iZt6KP2j8dZoufkWZ4IxE4vvL3gA5ApZ0azjSaswSmTaDypaL2T8/xMQy/15jvIFnGoyiOxf/LztmmbWPyYITGDWefnb87TGzEUEOGF/bhCEQeRBcYoUBnxW0d/heRBpsApi1C3t3qCFQ6AAzRWwcBaWLYmxyT3kvb49Nzq9aHyLPqWpu+fQqs6DRI7TxGEzCCgEmJ+pgsCyeAyALhf/Lf5vZ/nACbAFYnEF552gRmBiwMGSmGjZ7Smy4061j+TRS/KHOk68h17DIRBWDIYeoEMGU0sxP24QRE+H/b2//DAWAYZGqjCuvTttLenQQGIFD5QjF+euod/0IwlhW1Zc+PcpgubgZZN0Y4AUxUlToBCBPfNGD2vgjnt03T3v+0/0cofFtTIgA1DsAAptEsJTB9ApUOAEati7EdUwzHvFYXFp6zeYLe5TejQyAjZZhwKGqlRALoINh1lABfSmT+DfJb5fj/dXE4dACmL0be4fgEZgYrDBcpk44wtW4XYzjFc3Q0piXkff6e5BX5MckQ82XEu0SfAGYSbFv753g6FPIekte2t/83aAIY33J6RQlMgMDMWIXRIr3hla/MmEltimLuPQ0n5iGEq2bcVzna5sPxfF+BbxjE+0Qtnmm02zgBRA3+/Q/8QJ5H1+l/l625r3rmv2L5jQBMQG28hbUiMDNSYawiZSrUVRvxoa7f1qgPVQ7zXc4RWaffkbKkC0Nn+ZhRvE8MEWzTFMCxfIuA84/01P6/boJeFPhF/zMHgn0A1ko/LMyGE5gZqDBUpGOE/8NYNhHBOJa0yfFdjxk6/67lmsJ568h26DLhBDBCIN6pX7/55sZRgJj9j3Nv7ckBWCSw677fCMCGq43FXzsCpQ4Avf/p2TyU8IThxUDSZspMg0QcMJYsfHyF4Yfsjw+7cE6cN1S5+sp3U8rZ1/1OIZ++f7N4Xv/7O985q8kTBWg6KgBngU6EjCxA+IYQ502LCBgBWDv9sEAbTqDUAaD9cgijHkaWNlIEH0cDI5dGH2Idw8d+JiLCQTh5+PDGOABDsJtinvE8LLq3psctymfM/eEA8M2Ar77//Rlf0WS2wD89frxRFCBt/9/m6X9TxwcOl55+eqm92HA7bPElsBICpS/TELP/YRCp0SP8TC8cQt8kDWeAc8eal6Bv0ekzvz7z6kMU+yxPn3n1cW/L5sH98PVAavQ4AX/wvvct7AtAlCBt/9cBeCkCogOwEp3wohMkUCnCbT7+09RAMqQw7RmdCv+BV1+S3fKed2c//q53ZG99y9Hs0Gsuz3bv3rVjYhUcAfKg2aDpdfs4bgxRGuMafbAwj3YdF/ldWf7x+PF8WB9j+xeNBvifd945G/+/7fP/GwGYoPJ4S2tBoNQBQGT7nv73M1dcUVnrR+zvv+8T2R88/uvZV37vNzM+h/qlR76QPfy5B7OPfPh49rrDr93hCDDZCv0EmvZT2DZx3bb7XZVT0oQzx7AQBWg6CoAoQYz/v3Og9v9UWDdl3T4Aa6EbFmIiBEodgBgB0MS4NTG8RBOqhu684fuuyn7hwU/l4o8DULbgDNxx/IN5VCCNGuCoMFNhUyegSVmbHNMXl6prDZ1/2XVXcc2yckxxG2xZ/ub66/MowKLaP04CswfyrDP/f5sOgJvWqa+t4+EogIkoj7exFgRKHQDEmk56fYgCU6NGTQbBxqCFiL/xDUeyX/z5+0tFv+gI/O6XfzWPCLzrnT+avexl3zXLY1VOwBSFalPvqY/ndMh7DweANI8C3HnnwiYARgvwnjD/v+3/L7X/GwFYC92wEBMhMBPSEGVSwut01lvWKBL2ZxpU8kT4+W56zJN+8d69C2v+RSeA/3/r134l7yuQjhwIJ4C52MvKPLRAtMm/zbFl97Jo29D5L7q+++v7B/D7fOu222qbAviCIJ0FeW+ONgz/T73mH5GCe50IaCLS422sA4FSB4Ae+ss6AI8fOjRr80f8b9u1K7v1/PPz6yHYP/WBYxm1+jKRX7SNPgKcf955587KT55EG6YogEPd01D5ljkBTa7V5JiyvBdtGyrfuG7b/Bf1BWDK4HCcb27oAIRALpNughNhE8A6yIZlmAqBmYCmEQA+ZLJMuzrnxhSoNCf89O7d2V0XXDDrB0Don3b9RUJftx8n4EO3v39uDgEcF5ouwjCb1tdGi3wWCdmi/cX8/L+cPxwZEVDVF+A//9iP5Z1e88jWAA7AJgh9lSNjE8BUpMf7WAcCpQ4AHwGqCqc3Mep0+sN4Eaa/4xWvyB7ety+7+dwXa+ts+5m7PrxQ/BkNUOcAsJ/mAIYNps5L188XN7kvjykXtFVxqXNI6va1KW9VPlXby/IuHsv/RAGqHIB73/zm/Jlu2wGwSjSntN0IwDrIhmWYAoE54UxFdJlZAJmk57rzzsvzvvGcc7LPXXxxvsTEP9/7PYezE48+XCvudcJf3PfIL382YyRBlJ8+Bn1+wrhovMsMvNuWcwy2jTH3y+yA/1zSGZAJgP7VFVfkz7MdAF/q/BdOjA7AFKTHe1gHAjPRDPGMdJkIAB3/qP0jxD+7Z09e+yf8zzbyZ7Kfoogv+/8nP/6xfNKgKD/fEhhSlIcQrCHyHJKBeXd3evitWegMWIwCMAHQ4VNfEGzaATDEcRtSHYB1kA7LMAUClQ5A2z4AIV40G8RMf3T6I/TPQiQAcWb4HmK9rOAXz6c/QNoUwLDDsWcKXCSIwWjRcV33D51/13INcd7Q9zpU/uSbLmWdAZkAaBUdADfFedABmIL0eA/rQKDSAeADPG3m2w+jxsgBav6cT+g/HAAcChwAhv4Rsi8KeB//M58A+UcUgE6IbfoxDGX0hxDAdc1zExgOWcYmeXNMLEwMVJwZ8Jff8VKfltsG6AC4KUJfVU4dgHWQDsswBQIzsQzRjDSGAYahaio4OACcS6//cABIj5x2Wn6to9de3XjoX3QCJP2jr/xO9qd//F/z5c+//sd5+if/91fz7U+c/O2MBSeC5oW4B6IAD1155czYNr2Hrsc1Mf5d8/a85cLtXfkN/ZuSf7EzYNoB8G4dgB2fQNYBmIL0eA/rQGAmliGakRKCPHnkSN6O3sYIEjVA/B/cu3dW+2c9Jv+58YdvaFT7R9AR/L/8iz/LvvH3z2TPPfft7IUXXphbnn/+O/n2Z5/9Zn4Mxz322GPZnosunN0XfRmWGc7YVTjanteGcdu81/34bb93OgNGPwCiATEDIMNnEbuqmvC2btcBWAfpsAxTIDATyhD+SBl+1LUnPRMARej/i/v35x0B4zsAZR0A05o+wo/oI+oIfFH0F/2PE3DTTTfN7ouOh31/1GjdBbVN+bZRfIe+5yb5c0ws+WiAe+7JnQBmALz+wIH8+XUEQLnz4zwAU5Ae72EdCMyEMoQ/UhyArp3oTh4+PHMAcAQYAUB+5M3sfWXt/TgBX3vi9/Oa/CKRX7T//k/fNxtxwDWZHbCNKG7KsU2EZuh7GaMMU7lG+luE+EcakwL96fHj2cFTs2U6AqDcASACEPYk7FWSroNdtQwS2AgClQ7AMjXnogPw0TPPnAnyB953y5wDgPBHrb8szL9I7Mv2P/nkk3OdAW/fu3ejHYAxBDAVJ9e79zdoyq74m0Y/gMd/4idmH8660fB/afMH3wLQAdgIfbGQa06g0gHAo2Y2v6YGLT0ubQIgAsC3zMNDZ6heGgGgc98zf/1061B/mfDHNpoPbrj+bbNrMiyxzWiA9F5cH14Mt5Fx1Pzj3qMZwBEA5bX+tL+DDsCaq4rF2xgCM5EMgU7Tew8c6MUBiA8AkXfaCZCa/18//T86tfWH2Jel9B244/gHZ/fGkEQ6AhZrXWF8p5JO6f6a3kvT49b9N47hgJ9661vz55YInCMAyp0BHYCN0RcLuuYEZiKZCn+sd51Tv9gEwIRAkScfAWLSHqIADOfr0tGvTPSL2x544IHZNfMRDYcPd3JmugpHlTBVbe96Hc9bfYSij9+UPJgV0BEA5aKfRgBwjGJW0bArSbrmJtfiSWB9CMxEMnmBZtu6tJ1jyL561VXZJy68MP/0Lx0A0z4Ah15zef4dAIb49dXmXxR//n/00UfzWQe5r+jP0IehXhfB5V7qlqpyrpLBKq9dxWOI7V3vkygAU1jzzF56+ukZvd1T4XP9RR40KeoArI+IWJLNJTAT+zIHgJn02hpIjB8OQMz8x/A/mgBiGODu3buyR774S/kwvzLh7mvbiRMnZg4A98ZIgK6GuS2DMY7/+jXXlDoAsX2ZMmwip7ZlbnJ8k2OW4Vw8l+vFR7SYOEvBL2egA7C5gmPJ14tArQPQ9YNAzAbIZEB0vkP8+SBQzATItwA+//lf6rXTX5nTkEYAcAC6RDOKBnqZ/4cWE/JPl2XKOva5Q7MZ+366Xo9JtOivwvPqCIBy8ccpSjsVl1Rc1svCWhoJrDGBWgeAWnyX3vOc818OHJibC+CGU4aNF/buu+8erO0/nAGcjNQ4dIlmdDXkcd5QwlaWb9T8wwmIMkw5LeOwbvfbpowxjTbP7a1GACojIHwfwSaANVYVi7YxBOZEMhVM1tt+ECg1vsWhgOlIAIboMWNfiPUQKZ0AiTbEPRHNSMu37Hobw97lWm3z5/i253QpF+cMfZ2h80/ve8xrpdctW2fqbabMRtyo5doEUM4AByDe65J0Y4yvBZXAqgnUvUj5R32olZQZq0Xb6AcQ0wHTBJA6APQDYM7+IYQ/8uSTw6lxWEUEYBGjPvcjZOskZn3e2xTyavLb8K7hAPgNgHLhD4dIB2DVsuH1p0JgTiRTwWQdQ/TY61/fyQFg3D3fAeBLgIT/oxNgXINmgKFGATC0kPzjWqR99QFoYsiXEayu+Xc9b5mybuO5Q3IOB8ApgOsdAJpH0ne7sD4V2+x9SGBwAnUvUj4ladcPAtEP4MRll+VRACIAdArkM8Hxsh689NLsiSeeGCwK8JEPH59di2tO9XsAIcII05DiFNdpk66iPKu4ZhsmdcfyzjBnBu9K1HZNdzoDN+sADC4MXmB7CMwJZQg0aYyfrzNaxX2pAaYZgCgAC80BaTMA+SPSQ0QBnn766YwJh9J7eejKKxtHMtJ7KN5fm/+r8qna3ibvbT92igzpyMm78vldu3QAavpA6ABsjzh5p8MTmBPKVDRZ7/o9gBCoLx88ONcXIG0KuHjv3ozx+tFu30dK+P/+T9831wGQdlVmJ4wyma5u9rx1E+51Kg8OAKNndAB21vrTSAhDJIt2Kvl/eIvpFSQwIQJ1L1PW9XsAIbJpZ0CiADeec87c9a677mjG1/v6EH/yIK/XHX7t3DWi/b9qSOM6iUBwa5Juarmb3Ns2HsM8ADoA9eKPI3C9DsCE5MdbWTWBObFMPOl8e9fvAYQBp2MTbZoP7t2bRwKYIpgaeXqdm266KSNsv4wTQM2f5oRi57/dL3959ujhw3n7+JQFs+976zu/eB6WSdexTMvcT/FcHACcZCMA9U6ADsCqJcPrT4nAnBinwsz6ssPn6ERI2J+RAIwIwMDR0SmdyIP1Y8eOZU899dRSTsDJkyczOhem9xCfAp66eBTFZCr/b9PvFtGyL5x5pn0AavoAMEoifccL61Oyzd6LBAYnUPcy5dP5dhUTjDfDCPkaX+5MnHtu7gDgCMS3AtKXlwmCus4P8Oyz35z7BDD5Uvv/zBVXbFTb/zYJXtfnqs15m8QzvqKpA1AfAYhpxVPbkawPbjC9gASmRKDWAeDjJFVt500MMecSRcgF+Ywz8to/UYD8+wDJ9MDxAlODZxa/NtGAZ5752zz0f955587uhajCXfv25WXnK2tNyjrFYzZJAIP/JpY5yr5MGg5A2uHN9Z3OwGEjAFPSH+9lxQRmohkinKaM3e86G2AYw4cPHcpr4+RLcwB9AnAC6BdAp8C0OYBjmMKXYXz3f/q+3BGgfb+qfwCd/mg+KOaB08FkRFGGNO1DYPrIgzL1lU96f64vHuXQhnubY5dhHw6AEYCdoh+OEJ9I1gFYsWJ4+UkRqHUA8iF0R46UCmlTY8fwJtriw7HYfcYZ2c3nnptHAWgOwCHguwNFEef/N3zfVXlEgFp+OAF09kP4cRAYRRD5Rsq1mFe9afn6Oq4Poegjj77uZ6x8hr7nofPvi1N8PyPEznSnI4ADcOnpp+9450+9+5MyzN6MBMYgUPUy5dtpR+9jDD2dAeNTpyHURAOIANx1wQW5M0DnwOIxHEtE4Jb3vDujkx+f+b3j+Ad3dPaLPBH/rtMX92XI1zGfdRVByoWDuI7Mxi7TOjsA9512WnbvqU/x3n1qHTEe20nhmulcIvHen0rHsJdeQwKTI1DpBJx11ln5MLo+jCHCnEYC4uWlpk9TAyMFWKo8fCYOojxxXppiFGjzZyhVH2UljzrRrNvX1/Wr8lnltavK1HY795Aubc9f5vh15YcDQERsbFGtuh5iy4d36HXP+8V7GgtRPELx7B/TEeBaVfZhclbZG5LASARKRRWB5YVvM43uIsNMf4Jje/bsCPenYt52nREF9DNYdG33L24bH4tRKv7rKshjsYjrRARg1X0AEFlm26upac/sBfYBB4HoQJUj0ed2IhE15RrJXHoZCUyLwOyFLhPfZacDDgMXKZ3zyJMRBlU1+rJypNs4j2gBMxUu20kxypWmitK8s9A3j3AACP83ybvJMenv13V9rOuUlW8dOgFSoy/rZEdT4MHzz8+b6GimI2IXny4OJ2CMSIAOwLSEx7tZDwK1DsA9+/cPUrvOZz47dCgfJogxwZCkIl9cxwhheIggUOOv6uVfZlynsG2V4tQ3P+4lXdL8p3Sf6X0tWmfGSkbHrCoCwEd2CO0X3zv+591E+G945SvzZjya8ljozMvneYkYjOEAcI2qMq6HKbUUEtg8AqUvfRiCmEt/kQFbZj/9AxB1IgO05XNNhvKR8j8T+tCRkNr+MvMSFMs4lNgMlW+x/EP8P2TZybtsGeI+NilPnmk6wTI0dhUOADX/VFjpb0Pn27AB4QTgqBO5CweA9KNnnjmK+NOUQAQgLWdavs0zu5ZYAutBYO5FL7xUS08H3MQQhyhUHbtof9V567SdexiyPEPn37XsabnidySN8H+6v+01ljm37bWGPB7HlugWI2K+dNFFo7SnR9s8vfrTdvUbf/iG7Bd//v78c91Hr716RzMdM3sWIwFjOQE6AOshGJZiWgRqHQBe9kW17k02xEOXfdPzH1L4zPvFvhZ0AERYbz3//FE/G7a0DgAAIABJREFUBkRIPZ1a913v/NHsS498IfuDx389X37r134l+5m7PpwdePUlczYCZyWNAhAVoDPg0M0AOgDTEh7vZj0IzL3cxQgAvezLxmoPLWyKw3xHvFXzWNffe13L1eb3onmLPi50bB3ra4CINW338b5T80/FP5wA0v/wiY9mey66cHYsnXDpExBOQHTopSkhIgtDpIw2sAlgPUTDUkyLwOzlDoMQKe1+Q/S0b2MgPbbeGZiCCG7zb0wHwLyj3WmnjeYA0HkvOt7yDQ7C/qnoF9c/8uHj2e7du2Z2Im0KIEpIXkQBhhD+yJPmiihz2KcknZZF9m4kMCKB2YudvFD5NtoH+55dr0/BIq8+8ysK0ZB5F6+1Lv8Pfc9D578uHJuWgw6wCBvO9v+5a9egIoqYUpOOdn86+zG7ZlHw0/+/8nu/mf3ul381+/F3vWPOTqRRACIYTNIzZDOADsCIiuCltorA3IudOgG82IQomxqzMY4rCkjaoay4b4zybOo1ZFUfWRnrdw0HgHft/zj33MEdAIb8xTvOh7eqQv+pE8D6Z//jz2WMEIhziQJEMwDOC+H5IScF0gHYKk3yZkckMHup4+WOlJoJBmosY9jkOghXKl7xf6RN8vCY4cUv/Y3kXc07HADeNXrUR8h7qJRQfbzfH7r9/Rk1/KLYl/1fjAJQ3hgWSMdA/kekhyr3nTYBjCgJXmqbCMwMQhiGNO17NsBlxSCEPk3TKEDk31WAmpzX5Jgoh2m1+I3FZp1/r+gDwDs3Zkc6Ig6/8OCnGol/OAQcn/YFoOZPFGCMjoA4AKldKqxvk732XiXQK4G6FyufcncsQx3XqTPY7EsFn//TJfIw3Sm8dVz74DV0/n2UsSqPVZU9HwVwahY+OucNVYMmXxyMEM7XHX5tduLRh1s5ADQXHHrN5bM8cCLoBMhCE8CQ5U/LHveQpL0aRDOTwDYRmL3QyQs123bnJZesVRNAlQGv274q415Xpjb7xi5/n9drk1ebY9vwW+djYxgg7x5D84Z0AIrj/qNm3zSlGeCH3vaWmW0g7B+dAXEG6F8wVPl1ALZJkrzXMQnMXugyB4BpebsY0G0x5ut2n2OWZ8xrdXkGN+EcRtlEr/zrBxRQ2udjHD3CzSQ/TYU/Pe4D77tlzl7ExEDcw5AODNGFMvt0atuY9tJrSWByBCpfriazAW6CoS0rowK2s5mgjNM6bJvqb8U8G7SlI2RDjqVPe//Tm//hzz3YuANg6gAwMVD6rQDKjo0Y2gFIy1/iCEzOIHtDEhiTQKUDwGyA2/b1vUWCN1UxWnTf7u/fYYpvASBqhOiHCqETXQjhZJ7/x3/jkU4RACYNSjsCRj8AhgUOGcHQARhTDrzWthGYGYcwEpHi4WOklhG9Zc4dS3TWvYxp+ViPJfjE/5HG9jFTrj3m9bpea53KyaexaUfnfTs84Jz65B3v9C3veXen2j+RADoO0oEw8mJqYCIAQzsAqQMT107SbbPX3q8EeiUwe6GTlyrfRmiv79kAuxrubTuP0Q7p55IZksny0JVX5vMzMIQM54wPNq1S+Nftd1kngV/EJnUAhppNjxn6yDve7Z/6wLFOtf9oCuDbAZEX/QmIEmInhowA6AD0au/NTAJzBGYvdLzYkeLhIzSLDJn7+wsP0zP8rn37ZjUrjGz8HpGyjfArERo6at574MDMUWviDDQRySbH+Lsv97vjvCGg/K5DRQCKH9JhAqAQ8y5psSMgEYyhIwDpBEbxDiTpnDHzHwlIoB2BHQKTvFx5jbOpoR9TNOJakTYt41DHLVsOavu3792bG9OUf9N1nAEch2WbbIbiY747nQX61zCRDr/xpjgAfBwodUpxAHj2+h4FEN8WIE2HMJa8D+2snUdLQAJzBGodgE8dPDhqBGBZId00oSEMTA2eIVUlxi0777xz83nYv3v/vjzl86xsKzuWbQgKzQRjcti236wvtkQAwgEYqgmgOI8+At6l5h/ncH48ezgCOAAsDNX7Qk/TGRO1uO9Up8hiE0Zc+1Q6Z8j8RwISaE9g9kIXXq58u5MBvVRz61vomAueb8EXuWNYr7vuaIaxvf++T2SP/PJn8w+3kDKEi2lZCeXyQZe0V3bkw5hvogmPV3zLoe/76EsQty2fNAKwiQ4AzxviT0fAO17xit5GMeC0pBGAtA9DPOOn0vbWzjMkIIEdBHaIULxoCMm2GeYh7zfEl8gKnaeCc6SMs+bzq/S45mMtdR9sYTgXzgAdu773ew7vyIuowtjRgGAX9xn/m77kSAYLHIDoAzCUA1D8kE6bSYCKzx7/l0UA+CZAXx8zQvjTDwsV+zDEe3Iq3WHI3CABCbQnsEM84kXj5SZUGUZrHdIxxaXva8GSkD+d+IJxpNT8Q/wj5No0JTrAucXmAdpn1+2rjoueob6ZL7reqvaPMQqg6AB88uMf660JgOeWCEDfDkDU/pkXQQegvTH3DAm0JbBDjEKUaKNsMxnQphvvIctfFH8iAGkUgCFWTb/RXuYYEBGghpd+tCWMNKMLViV063rdNr91m2Ob3i8dNnHQ+I3GiADgYLaJAJQ9Y5wftoEU+9CnA1CcDKnYhyG9dlsj5/ESkEA5gbmXOn3J8PCpqTQ1akMeN4QRHqK8VeUk7B9zsudtp2efnTHUEt6059O+X2Z0225jxjZmfEt/R9ppTx45kv+OlK+qjEPwWMc81+H+UwcARzA6vhVFcJn/iwK6bCdAIgjpc8VzzFDUIcrOffMhIByX9JrJerk1c6sEJNCKQNULltdQt2EyoCEFgbyZTyFq+3T8o9NU/M/87HT2ayv0dcfjTLzh+66a+10x1ERzKE+T+21yzDqK+6aUCYeMMfQI2lAOQDGEfuzYchMB8T2ARIDzJoAhHQA/BNTKjnuwBDoRmHup0xectupNCh+vo2gR+sdIwpUa0ycuvHDW+YvazbKzs1U5AnQQPHjppXO/LaM6KE8dp7p9myKum1BOHOtwAodyAKiZxzV4/t71zh9dytFMOwGSH00At55/fm8jAIrRDuYXSO1RYb2TsfMkCUhgnkDlS4ZAbVonskXGfwyB4xqxMBwPI0z4/6d3785u27VrFtZ861uOLtXuXyX+sZ2QLXMHhOHEoRv79xyD96LfvGz/qsuFYx1NQkM5AMVx9Dxvv/vlX+3sBOCsxrOEbcAB4HkuCndf/zsN8Lyh9j8JDEFg9lLHy52mzEFfZkDdtnNoV8okHADa/uHJkK+f3bNnNunPwfPPrwz9F4dghaB3SZkzIP2MK9EIogBpWavWVy2SVeWawnaahaIPCA5A2vu9LwElz/RjQHzMhyGmXZ4jzmGkSdgGHIC+5wAo3rezAA5h7s1TAjsJzF7seMEjZYrZKRjcse8B8URomUsBA3/XBRfM1f75MltZbQzxL9vexGiXOQ4YfCYWit9z05p1xv7dxrpe7gCc6uDG80F7fVEA+/g/nUuf/iYMGW3yLJUd80Nve8vcczTkCIAFHQAph38SkEBPBGYvdghFpE4GVF/TrxIMHABGUCD8tJN+7uKLZ23/zOBHG32ZkUX8y4S87Nim2+hkmM49cGzPHp26N3f7Xat+77bbaYqhFs17RlPAUD3p0450RByqnrtFzxLDTBmtEnaB5wkHgPyHKPuC8L8OQE+G32wkAIHZi11cJ2Tc1riNcfzQ4ek+8qf9/+F9+3LxJ/xPTQ++1KQwqKnRjZp/pOm+WA/HgJTlj77yO9kTJ3+70ayBae2N8ee0Qfdxj8v+1utQhmXvocv5NK3FuzakA1CcDGjRUMB4xuKZi5TIAd+kiDLzLNMHgLITZeizCaPYeTGumaRabQlIoEcCsxc7ecnybbTzrbLNeAyBGOoaX/6XKX9xAFjoAEiNj/Z4JlQpGlr+p/ZfjACwnQWh/9oTv5/9+df/OPvLv/iz7Bt//0z2T//wrey5576dPfvsN7NnnvnbfDv7OTYMd6R0CIw2Z35jIjtNf9c2AtcXy675dD2vzT32cWzRARiqCaAopl1HAhA5SGeaZKrpmMiI5zqdwnfZpgvC/0U7VPi/R9NnVhKQQOULR0ecr19zzeBRgL4Md1/5VBn5pvkjrv/lwIGZA3DjOefkjBmaV9YOG0IfKcJNDR+xf+avn85FHrF//vnvZC+88ELlwn6cA87DYQgHgFkG028GYLxjcqCqe3X7cM0ETAkdokYteigHoKwjYJcZJ4tDAHEAogmjbwfA8L+CJIFxCcyMURilSBGKrzqVbGsHCGZR+39w795Z739C8WWd/KLmHyk1eWr2dWK/aB8RAhwBHAkcgQ+875bZ74zR7mNIYFOHSGdi3pkYywGgNp4KKhEoJvQJx7BpSuQgbAKRpJjEiG19dmLEEYqmsrheSTqudfRqEpg4gdnLXXzZeBm3YTbAvgWKqMmXLroodwLoCEgtD7aL2mCptVPjp7a/SOCb7seRwBH4/Od/aS6Me8/+/bljEyIead8szG9e/OHBpEzxrg0ZAcABSDsCck2+O1Hsg1LnCBSjRzgAaadSooTLhv3j/ChrRBeCUSGduDn29iQwPoGZQUpfNl72PmqKQ4tAV/Hqet6i+6H9PxyAm889N2eLUaua9pd2e0SaWntTYW973NNPPz03RXCbOQEW3a/7d4p8HRP6YMR7NrQDUKxVMwql6jkscwSKo0ii3JEi2iHgy6Z0KOQ9WRAFGN86ekUJTJzAzCDFix2pkwG9aNzbOAs4AJ/ftSuPADD/PyxxpsoMb9T6F7XvtxX84vFEFW666abZ7xwfe2pzX3Wilu7rmmfdeXX70mtvwjpDMeP9GtoBQJSL0+o2jQLQJJWOIIkyR8qXDPsaBhgdFsmTJa5Rkk7cFHt7EhifQOULR3vlJhjVdSojfQAiAsAsgBgxelF/9j/+3Fz7K+K/bFt/Uejr/r/77rtnvzPtuDTvTElYi8/A0PfWNX/G0Iew4QD0JaJVNfCuUYC89r9716ysUeZI+6z9x+Q/RAFqHIDxLaNXlMAWEKh8yWmvLBrWtv93NZRtr7Mux8ccAHQEDAeA0Gv62V8659Fjv06w+95HP4Aw3oRaH7ryytl3C7qy29Tftmu5u56X8k0dAMLdQzsAZVEAvg1QNiIlmgGo/aed/+K5iZRphvsc/0+UAmcIp4I0rlNIt8AUe4sSGJ9A1QuXf80uNV6uL27vPfkvnwCOUQDRBJBOxUqbP2P3+xb4Rfk9+uijc98GcKrnxb9l3887Q0SZXyOEbSwHoBgF4Po0BVQNC/zFn79/7mNSUV5SBJoae1XEoe32GK5I7X/BPADjW0avKIEtIDAzSOmLznqbyYC6Gss+alVdrz3EeVUOQEQA6PC3SKyH2P/YY48t7QBM7bca4vevy/NP3vSmfBa9eM/GcgDKogCUge9SFEcFUPtne5SxmDK0sK3I1x1PBITRBMxceHP9REBbYIq9RQmMT6DyZY/OYnVGbYh9myw06TwAEQGgDwBtqrT7D9nbv85xwAFIZ3SbWv+Ors9M2Xll2/p4zvlGBO9UiCrt3X2G0uuElihAsX2dzql86S9tDsBRJWIVZUxThHqIJgvKRtnTeQvS655aH98yekUJbAmB0heeyYD+8I1vXLofQB/Gs0seQxnyurJg5KMJIGYBxIAxDwDD8epEesh9fTsAq2Bbx724bx3Lx7vETHohbmM6AAgs0/aWDbNjpsif+sCx3Emtqv3T7h9CXedoLLMv/YRxMErSLTHF3qYExicwM0rJC5cbCz4eUzSu/l/dfsxEQF/cvz93AlIHAMM6Zq//ojNBJ0Bmg4vf91MHD/q79vBlwDaOBg5AzKPP7zC2A4A4E2ovcwIoT3Gin3hWxhB/IgtV5RrfHHpFCWwXgZkwxEufG4Qzzsj4frmCXy34ZWziY0C37XppGNXrDr82e+qpp1YWAUiHAfLbfuaKK3r9XdsIYRmzbdjG0Mt0Kt1VOAARCSDcXtPjPrcH7Kdz3tA1/yhTTXm2yxp7txIYmUCpA4BQ9D0Z0DYIRQwFzKcCfvnLZ2wfeOCBlTgARB5uuP5ts3IwDHATZnmcmlNQjAD0PZyubfidaAACT82bZyKcf/7HQWD/WH0UYirgKEMhHdkcejkJbBeB2ctfePEyQ8Xtav+IVowE+NzFF8+FfBHhVQwBJPJw6DUvfYceYz+VyA5NLjiVsazKaWji2PIVxjQCgAPQVrT7Ph6BZ0HsGYbHMkaNv3gfxRkLC3Zou6yxdyuBkQlUOgB9TAa0KqO8zHWbGPSq/NOOgDESAINGGytjr4vt80P/f+LEifzaYVQ34ZPATfmH8Eda9Zuk25vmnZ6z7DrXpAkgbedeBwegKMSr+p8RBvF8lqQjm0MvJ4HtI1D6AvLhmGWN3yac36coMOFL9AOgGSANrzIn/9ijAe7/9H1zv+2UPgYUwp+m6/a8RdmKDkCfX9NblXD3cV0iEKljVHAAts8Se8cSWAGBOZGIl3CMyYC6GOw+BbvL9YvnFMuTNgPElMAwpSf+Jz/+sV4/+1sXQeBDQMeOHZv7bRf16yjeS/Fe1+X/EFbSaAoYsmxduUQ5GVEz1Od0+xDiVeVBk4MdAFdg8b2kBBICcyIRDgATlzCD2ZCGddm8uxrmZa9bdz7M6APAnAA/vXv3XBSAbwMwNW+dcPe17+TJk9nBSy+d/bYR/g9RinuoY1i3L85fRRr3kKbLlmPIe80dgKSznU0AL/aBoP9BGiUL23MqTUyUqxKQwFAEZiKRvoBDTgY0pLFdVgiWPZ8e38wDgPg/uHfv7MNAwfaNbziSPfnkk4M6ATQ1MNNbXJOUz9HSRBGiuex91p0/xu8b9xFpXXnq9g1R1mKedLykH0j8HjoALzoATgE8lEk3Xwk0JzAzTGGgSAlZMqytznhu8r6ike7rXmjvhR2hzZvPPTejL0A6CQxsGRUwlBNA6J+x/+nkP1wzwv9D3Xdf/Jrmw33E0vScVR2HA5CGuu0D4BTAzc2zR0pgWAKlDgChuaHHjE9FjFJhSTt8YfSZFIjad1oDRJCvu+5o9sQTT/QaCXj++e/kTQw0NXCNWGjOYShaWs5NXw/xpw/Aut9LHgFImgB0AF50AGpGAAxr8cxdAhKYEZgJRQhGpFFrHNPAbrpTQB+AtPMfvZxpDiAaEFwjxQmgrb6vdn8cCuZ3j/xJceSc06H9nA59PvM40mlbN8I31kQ7q+rg1+S6NIWkz2qyPjNOrkhAAsMSqHoJs3v2729Vu9p08e7L6MMtMWb5UKdbzz8/7xuQCgHHMFUw8/UTul/GEaDdn6GG6XVZv/GCC9ayM+c2PSs4AOnvYgTgRQdIB2BYw27uEmhCYM44pYaK0HVfotg2n00WCMLtaRQApkQCGIefThAUrAnZ3//p+zrPFkh/gjuOf3DH78gX6Ag/bwrLTShnlzI+dOWVc78N0/A2qSFP+ZiaEQBNbJbHSEACPRGYM04hSqTUHtsK96qO72KYhyorZUF4i53/YErtL/00bPCm0x7j9tt8OIi5/vnOAFGEyCdSrj10H46h+PWd76qfDZrS4nch3XYHgOYPa/89WW+zkcCSBOaMU2qo2s4FMLShHTr/voWHtvdiyB++dA4s284+RgjUdQ6kox9OAvMJ4DAUe/uTx5jiv2m/Sd+/cZP8dADmIx4O/1vSYnu6BHomUOoEICSMa29i5DxmZ0czxt3zTYXiCIDUySpbpy2fjwch9vQNYJ0wP6JPqJ+OfmXCT140PWxizX9dHYk+yoUjmP7OfHFvyuH9untj9j+n/+3ZepudBJYkMGegwljxojKsbRvEvQ9DX8YJJ4AaYFlzQHAupog7TgA1fNKj116dXbx3b6Xocz5RBUYbfPWqq7bi9ypjvY7beK6KkaBtdQAI/dP8UXzek/+XNGOeLgEJdCFQ+lISpt7E2uQ6CgHTwdKnoir0nxjB0t+iaj+fmeW7DUw/zH0P5cisI9OqMpUxKNtWdX7d9rb5cPy9Bw7M/abb6gDQ8S+dEKnwTHexW54jAQn0QGDOQKUv5hhzAbQ1qnUGep338blgeDIaoCYMWvlb8LvgQBBNIA9qlkRoiDKs831ve9nu2rdv7je9cQubABZ0/IOPfxKQwIoIzBmo1AFoOxdAn8Z+io4B94RgExGALVGB6847L6PDJQviTq0+7yh41lm54CP67KM/AUPKNrFfxpC/5ZB59/E86wCclt3mh39WZNq9rAQWE6h0APqcC2DdDXUXY1+8p+L/VXmmxzGdLTMIIuws1OpxEBhKSBMMaZcvM6bXqCpH2fau55XltY7bxr4/HLfUqd62CAC1/5ppf639L7bPHiGBQQnMGajUWNG+PKUQ89jGv6kArmu5mpZ/jOPGZNTntbbdAaiZ9EfxH9Ssm7kEmhGodACYtIa26z4N4hhisa7X2EaOm3bPfZf39r17594vxsHXDZWb2j5r/82MsEdJYJUE5oxURAFok17noYB9G+tVOg7L3suy56/y3qd87W12AKz9r9Kke20JNCdQ6gDwbXvaozfdQA8hjkPkOSbnTS9/Hauh721R/uyPY+hHEw416a1bFAFw3H9zA+yRElglgTkjlRosep5jbMOg1Rle9+2cEVAm28ckHABShmym79O2OAB3O+5/lfbca0ugFYE5I5UaLCYyUcTaidimO0tDl3/o/ON5Hfo6TfLnU9Dp+7QNDgA9/5nwKL3vwnor4+TBEpDAsAQqX1Z6MYdBnXraxKB3YTBUvl3K4jkvOnNj/SbFCABj4qfW0a94P9T+F8x6Oaw1M3cJSKAVgUoHAAOWisZYhjO9puvtIhBD8xr6GRg6/zI+Q12TyZ7S2u82OAC2/beyvR4sgZUTmDNSqcFiLgAmqykzmqvYNpShXsW9eM1mjs0m/+bb5gAs6PmPnfFPAhJYMwKVDgBzAWzi9LNTF1dEMZap3+uy97dKB6LoACCQxZD5lP639r9mlt3iSKABgUoHYN3nAlhWHIY8f0jhCfEf8hpDstmWvImgRUSNdvEpNwEsmPPf2n8DQ+whElgVgZmhCoNFGnMBhOBsi+HehPvkN1mn5pl1YLZuDlHqAPA+TTUCcN9pp2WH7fm/KtvtdSWwNIFSBwCjxVwAYxvWttdre/w6iNWyZeCex7jvZa6xzLld+Ix9vboy8h2N1AEgAjBVB4ApjtOKQ8n60gbKDCQggeEIVL7AVXMBrJOxrTPEU9tHrR/2sUzt/qrup3i/fCWRqaofP3QoT1nn2xXp1xNX+YxuiwPAsL+9Z5xRaT+GM1nmLAEJ9EWg8gVex7kAVmnYqwRqrO0hhJE2ve4UmCHyn9+1K7tt167s6NlnZ/RRoZnq4le8Il+n0yrb6XzHNLwPXn55aSfWMViUOQCI5ZQ6/XEvdvzrywSbjwRWR6DSASjOBdBUcNbtuCGM/rJ5djmfc9Jl3Tj3VZ64R4T00cOHMz6sg+CXhJcrtxF2xynAiSUP8op8m5STY+O4dD221aVEaq4777xZ2SjL1BwAZjbkvmp+k9VZNK8sAQk0JlD5Eq/bXAB1Rncq++rEJgQs0qncc9l9INrU5BeEmCuf3VSYdp9xRp7XWF+4xNkgGhFlmJoDQMe/S08/fXZ/cZ9J2tj4eKAEJLBaApUvMjUo2lbLDLTbmk1mMwSnqToA3BdzT1BrJ7SfCEq+/rKXfVf2usOvzX7obW/JbnnPu7M7jn8w+8iHj2cfeN8t2bve+aPZW99yNDv0msuzs846a8e55HXk7LPzjq1D/CZpnjgAXCvKjwNy70SaAJjvf0Gvf+7bPwlIYEMIzAxVGKxIt2EuAEQnNd59ri+Td9257CsbBlh3Tp/3NVRefII67T0fzyHpeeedm33o9vdnJx59OPuDx399x/K7X/7VjOVLj3whu/++T+QOwXfv37fj2abfAA5G2mGw7/vBaU4dACIAU3AAEP8b7fW/IWbdYkqgOYEdhhKjG3MBYCA3XVz6NvKrZjK13+PhQ4fmRJNaczgAPIeI/+O/8cgO4U+dga/83m/O7X/4cw/mkYLdu3fN8iJPBJl+BdTUh3guig4A90LYfNM7ATrhT3OD6pES2CQCcwYyDC8pcwEMYSTNc3VNCOvGnmcsOvnR5n/jOefMnAHC+YT6qd2nYt9kHYeA84gIvPENR+aecZyKTx082OrZbup0FR0A7mnTHQAiGLb7b5JJt6wSaE5gzjimDkBbI7mMuDQ1sHXX6COPuvynsK+KUdX2qntue3xZPrT5R4c5wuZ3XXBB9tO7d2cRAbjxh29YWPNv4gwQDTh67dVzzzlOB80OZeVaZlvRAUA4CZ9vagSAsh8x9N/cmnqkBDaMwJxhTB0AQqXLGMNVntuHQK2y/Ntw7Xv278+bmqj1P7h3b/a5iy+eOQR06EO4mwh8k2PI6w3fd9Xcs06fg74/ekV+dKCN94gIwCY7ALb7b5g1t7gSaElgZqzCaEU6lbkAhhTTMR2NMa81JDPypvZNrf/W88/Phf/hffvyiX5ooyf0/zN3fTgrtus3Efq6Y37x5+/f0RyAk1vWqbLt/cdvU3QA6DW/qQ4AUxhHNCZsQiFtaWo8XAISWDcClQ6AcwFsb1t9CFpbIWx6PB3/CPkj/CxEAKLmzFC/RZ3+qoR+kdNQjAQgcFXTXje9F46DF8vJI0dmfRoQy011AJi8aEG7P3bDPwlIYMMJVDoA6zQXQBtBanNsGyO/7LFl5Srbtux1up4/ZlmodZ+47LKZA8A0v9T+GfL3Hz7x0d5C/2WOApGAg5deOnvu6Q+AQ8L9x9KVYdEBoP1809r/bfffcItu8SXQgsDMEBbCe3lN5uThw7lR7GoQPW97owhVvz0iy1j8L+7fnzsAtP3H2Pllav9lYl+1jdEFOBzxzDN9b/QHqHKEqran98mMg+lERpvmACD+C+b5h5l/EpDAhAjMDGEYRNKYC6CJ4UuNoOsvin4Xbl3OWQfebcrNsTiWEf6nKQAxZra/RbX/RSE4N13fAAASbElEQVT+KsEvbn/klz+bzyyYPu98RGgZltwXfRt4byJfxHRTIgCI//X2+J+QWfdWJNCMwMxgheGKlHHabYz7MgbUc7cjWsAkPGn4n1EAPG/f+z2H89n8imI91P9MJYzTEc86nV6XmSBo5gAkkQUEdVMcgJsXf+QHVv5JQAITIzAzgmEMIx1zLoBNdgCGdJKGzHsVzBkrH7V/Ov/FR3+Y138osS/Ll6mF0/kBYvrrZXjzIaO0aYFhdJvgADTo8a/4T8zoezsSCAKVDsAmzwWwCnFbh2suI2BjlD8N/0fnP2rizNpXJtRDbmO4YXxACOHG4V3Er24/nQlTB4Ba9bo7APT4DycsHP+SNGyFqQQkMDEClQ6AcwFsR1h+DOGPa3z54MFZ57+YCZCP99AuP6TYl+X9W7/2K3NzAzD0tUszAE4By2euuGLuXWIO/XV2ABzuNzFL7u1IoAOBOaOVev/0ju5iEMPYb1JaV7PbpPtY57Km7f+E/+M7AMzX33Xsf5mwt9n2Ux84Nnv+6cH/+KFDjTsDhvBHWnQACK2vqwPANwqc5reDtfQUCUyMwMwApuLPOnMBxPCoVQuLAt0sGjEkp2XzZvz/ly66KI8ARO9/nrNb3vPu0Wv/4STQ9MD8A/Hs37VvX+4AdLlXRhJEPjQFrGsEwOF+E7Pg3o4EliQwM1xhwEgZ0tS0RtTFYHY5p40jMnT+bcoy9rFj3nvTazH+PzoA3nzuS6JLj/wQ5DFThhXSDMAIhHjuaQagnF1+L2YVjHxI1zUC0GC4H/fhnwQksCUE5gxXGDE6SNGzuYsx9Jz5GntTkZwiN+6dJR0BEO3/XTsAIt5lS9GBqJs7IPbx5cF45mP+iy6/A9GDyIcIwDo6AA732xKL7m1KoAWBmeEKA0aKEWMugC7GcGrnDC3gQ+ff9+/Rtrwc/9WrrppFAGL2v927d2VMz1sU7vg/RJr/WX/i5G9nf/SV38m+9sTvZ3/6x/81+8u/+LN8+eun/0ee/vnX/zhjYR/HcXzkVZV+6Pb3zz3/XYe/3nnJJbN8+M4AnezWqQ8A4r/gAz+U3z8JSGDLCMwMV+oAsL7sx1LaCkVboSrLv2xb23xXefymlz9ll94LzUnx8Z/oALjnogsXjgBAxBF8xP7ZZ7+ZPffct7Pnn/9OvrzwwguzlPVY2M9xz/z10/l5nJ86E6kzwAyE6fC9rsNfOS/en3VzAG5V/LfMpHu7EmhOYGa4woBFSq0mNeiL1lODX3Vsk2OGODfyXOb6kQdpX/mkeY6xvqpyhwPws3v2zMaeX/wvowGqhgAi2NTkv/H3z5SKfIh9kzScAfIrOgK/8OCn5joCdh3+emzPntl7lH9pcE0iAHRGtObf3Bh6pAS2jcDMcIXwR9rVGI4hZNt2jVUJ97KcKTdL6gCEIB149SW5A1AUZcL3hPUR7iYC3+YY8o2IANflM8E0RcQzT/+ELh0Bb7zgglkeTK5Db/tVNwEg/k70s23m3PuVQDsCM8MVRjDSdRoKuKwQef58x8Qij6EcjHAAog/AJy68cFYjPfSay3d8A4BaOqH+NqLe9lgcC5oUaF4gAkFTRDzzNE+0Hf7KHAeMIJjlcfrpK3cA6ITYQPwps38SkMCWE5gZrzBipLSNMsVpUSwW/T+UmNRddxXXrCvPon0hjMV00XnruL8J+4gA4ABEm3vRAUD8h6j1VzkIOBonT57MaIqI576rA8DEWbM8VuwANJzlT/HfcqPv7UsgCMyMVxixSLt2ilpHoVqnMiGaTI7T1gFoIrbL3ucQ1yiLAOTTAH/xl/Ke+oj/P/3Dtwat+Zc5Ak8++WRGOeJ5L4t6LeLBEMcY2UA+h1cY/lf8w6SZSkACTQnMDGAYwkgxiI+9/vWtowDLitA2nF8U/0VCs4lM4h5xAD6/a1eWfgWQ0Dtt8LTJDx32LxN/tj3xxBNzTQAIOYLehjVNBrwn8c4wze4q2v/vPeV8RDlq0qZ2weMkIIEtIDAzXmVGY9nhgG2M6bYdGwJJSkRgyPsvczDKtvVZhrg/HIAv7t+ffe7ii2diyURAzAOwKvHHAXjsscdmXwXk2SeU37YT4MkjRzK+JRDvztEVOACK/xZYaW9RAgMRmBmvMGJpGkZxaLHoU3g2JS+Ypk0Bm1LupuVMHQDmAcABSMPlDzzwwOhh/zQawPXTZ73tVwG5PyJkaYc7ptsdMwLQ8OM+3Kd/EpCABEoJzBnC1Ch27QzYVCS2+bgQyEinxiLuK50K+Iazz549a3cc/+CoHf9S8WfCIK6fPutdhr6euOqq/NsZkc+NIzoADT/uo/iXmjw3SkACQWDOEIYxixTDyHAnDPoQIjVUvlHWofOP61Sli67P/kXHVOVdt32IPOuuV7aPMqRfA7zxnHNmzxqfA3766adXEgV45pm/za677uisLDzrXZq7+GZGjGwgD6bdHSMCoPiH6TKVgASWJTBnCEP4IyXESU2nzMD3vW2VorXKa8Ox6fWbHtf3b9MlP8qK83jisst2fA6Yj06dOHFiJQ7Ao48+Oldz7/oxIIbKpg4AU+8O7QAY9l/W3Hm+BCSQEqh1AHAE2k4NHGLRl1j1lU+Uq5gOnX/xepvwf59Mvnzw4I7vAfBcraIZgCGHx44dm3vm6euCo9L2d/nMFVfM5cMMfEM6AHT4Y6RBOOc1afp+uy4BCUiglkCtUWGSFHo89ykKbY1tk2s3OaZ4Xc4Zuhd+8ZpD/9+Fw5BlirkA6AyYNgMwIRDj8dP2+aHXixMAIaJ80rfL/fMFwRBhIgFDfgpY8a+1X+6UgASWIDAzZGHQiilGcpGwLNrfxcgOdQ5lTZehrrNJ+S76/Rbtr7rXtCPgXRdcMBc2v/vuu5f+6E9Tp4HOf1wvfbYRbtryq8petj048E5EXkM6AA71W8KyeaoEJLCQwMyQhUErpnwspe1EKWXGc122peIf66soW4jJKq49xjUJrdPB7tbzz88nA0rnA+AZYzpexuQ3FfFljmPyn4OXXjr3rNPJtWsEKP0UMA4As/H13QRAnswwWHwfS/5f+JJ7gAQkIIEqArVGhk5bD15+eaua0hgC0/UaIfoxFr9JPusg1lVlqNpedl9tjl32fByA+GAOTiTfBMAZSAWMHvlDNwU89dRT2U033TR3XZq2lungivMQ98GXDumg16cD4PS+VabK7RKQQN8EZsYsjFoxXcZgLis6ZUK0zDbKky7L5OW59V8cvG3XS5/dZercn969e25SIJ4zOuYxPG+ZGn7VuQw3LHb845pdhv7Fb506NuTFaJk+HQDFv2/zZn4SkEAdgYUOAIaO759vclNAKvrpehj2sVKuvehaTY5ZlMeq93MP1LLTGfNwAm4+99y5bUwPfP+n7+t9ciCcio98+PiOZ5uoBHP5xzPQlhPTBqczG17a45cA/aRvnZlynwQkMBSBHYYS0S8u9+zf32nYVJmRbStybY8vXjMMPmmE/5fNs3iN+H+ofCP/TUiD87E9e+aeI5wAmgRoO4/ni/4AjNGvqsm33c63Buj0h3MR1yAlksUYfsoWSxuWnIPzQD6Rb18OgOI/lGkzXwlIYBGBmUELw1aWMnEKY6AxhG0M55jHrnPZ+ubQ9V67ntel/EQB0g/nhBCnkQG2MUMgnfXain16PMJPx0LC/vRdSZ9hRLuPvizcD+3+kXfdp4CZuQ9hJ63rI8A8AkUekX8hXfQeu18CEpBAJwIzo1YwOnPbqcE9fujQ2joAXUTKc+rb8rvyCUeDcfM4j3XPFfuOXnt1LuAM20uFvW6dY5977tsZ4/yZYGj37pf6HcT1EH8c1673kZ5XnAWw7lPAzBBIhKCqjwCOAdMIp9GQKHNJ2uml9iQJSEACTQgsNNBhlOgPwBfRUsPYdD1EoenxHjeMOI/Fld+bjnOMnW9Sy2W4Hl/s+8bfP7PQCUD4iRoQ7j/w6ktKn98+xR9mRBHiPSCt+hIg4k50oKqJgP18RriB+Dd5dz1GAhKQwNIE5oxbauiK60yj2tUJ6Ft8+nIq+sqn7/vb5PxSpvS+bxIJIHxPGD8dIhg1fTr3UdvHSaDGz6yCxWeT/xFWHNW2k/0sYp1OAsR1qr4ESFif/WUOAj39ndp3aVtlBhKQQM8ESo1pmYFlG525lhlPvcjYFvenYlLct6n/b/o9tS0/NWiakaqeqXQ78wR88uMfy2v4iD3j+WkmKAvzp+dR68fZGGLUCt/HSK9V9iVAavcIPE5I8TsB9AkgKpDmUbHe86ttdhKQgAQWE2hinGbHYGwZHUDv6E0V4bHK3VYslylXk2s1OaasDF3Pi7yIHDE6IO1MVyGCO3ryVx3HdqILTNIzpFOazgLINYsCT2c/RB7xp8kjbf+nT0CTe178inqEBCQggeEIzAS+zuCm+4gGULtjnHQY+immy4rfFJl0uSf6BfC80JTUoB288nnkXPIgNI/wk2+X8iw6J3731AHg2oTziz38advn3YjwPxEBmgoa3udwb7U5S0ACEmhAoNLgpqJfXMfAUQPru911kXGe4v4QnCneW3pPhOlxBHhuaBqo6yPA88V+jkP0EWN65Q8R6k/LGOv8JmkTADV8xD11APifED9lJTrAB33CISi+LyX/N3g1PUQCEpDA8AQ6OQEYNQwjhpJQLzWybRGzEArTbiMXaEaiFv/QlVdmDB2kVh8L/yP27Oc4nquhavt1vx/liJo8wp6KfzH8T/8A2/uHN1ReQQISGIZAZycAR4AJYOiJTYcsDPeyzQM6Et2EtU7Q1n0fv3nZ7161fej7wanNIxVnnJHd8YpXZF8488w5J4BQP88+TkI4CiU1/fS9GubNNVcJSEACPRBIjVXndaICzMNOZIAmAjsNjiPmZeI5tEj2mX9V+au293ntNK/U4Xhw7978w0Z84jgcAEL9dPLjOV8g+On+Hl5Ps5CABCQwLIHUaC29Ts2IWhTtvowgYJY2ala05a4irDu2mKTCsinr284odQC+fPBg9sX9+zMcgI+eeWbewa9hqD/enWHfVnOXgAQk0DOBMF6DpNSccAqIEtC5i2aDaPOtcg5WIUqruOamOAlTL2f89icuuyyPADDypeGwvvSd6fm1NDsJSEAC4xBIDdko6/T6Tp2DiBrQUQzHgKaEVUUOpi543t9LzTREpnjeGLFwQ+Frhob8xzE+XkUCElg9gVGEf5FRpRkBx4CJiPg+O5EDnAOiBzQrYKhxEuh8WOcopKFdBO9vrr9+kHHkqxbTqL2uuhybcn0E/+SRI/kzRL8Vni+etUXPZcX+1b+1lkACEpBAjwS6GsPRzsNJiAhCmaPAEDOGdeEspM0NGH4iC4xa+Po110zSIdgUIR6rnAg+vzlOIw4ko1d4Zhr25K97pnt85cxKAhKQwHoRqDN+G7Ov6CzQH4E2XoZ1RWSBmiB9EyK6wGgGIgwnT41qqGqKiCjDkLXwuEYIZvH/2L7qdEgGZfcWHCKNY/it+O0QfH5TfmN+8x4EP5759XpLLY0EJCCBEQiEAZx8SgcwIgzUFCPCwAx11B7DaYgoAyMdiDLgNNAkEc0SEWkojn5I/28qmulxRcEL4VsmTfNfJp+hz4UdAg/bxw8dyrnjtCH0t+3alf8+iD2/XY+CH8/7CK+Yl5CABCSwWQTCQG5tGlGGtFkCIaIPA44D7cw4D3woh74MRBxooohmCmqr4URQe0XcUkcinAmaLRDBWPoS3EUOQNX+cEaq9i8qX9wHTTLcI/eMIwULhB0+sIIbjhccYTqgyFc9w5v1RlpaCUhAAmtEoMqwur0ww1xEH6IjJGIXzgRNF4hgOBQ4FRGVQCDDwcDJYCFKgYCSUktmCacDgSV6wRIOSDghiHC6sJ2F4+KccGBII2/a2O+64IL8mlw3yhECThmjzKRxLzhJ3CP3PFDtvctztkavj0WRgAQkMG0CXYy055xyICp6qTfmQxRjbjnVbj63rd1seI2vvWzZez5/2m+ZdycBCUhgQwlsqqhY7p4clZ7FPn6XDX0dLLYEJCABCdQRCCNvut4iPObvU/e8uE8CEpCABCSQExhTmLxW/06Kj7EEJCABCUhg7Qhss+Cv3Y9hgSQgAQlIQAISkIAEJCABCUhAAhKQgAQkIAEJSEACEpCABCQgAQlIQAISkIAEJCABCUhAAhKQgAQkIAEJSEACEpCABCQgAQlIQAISkIAEJCABCUhAAhKQgAQkIAEJSEACEpCABCQgAQlIQAISkIAEJCABCUhAAhKQgAQkIAEJSEACEpCABCQgAQlIQAISkIAEJCABCUhAAhKQgAQkIAEJSEACEpCABCRwisD/D5qvJF53cnz1AAAAAElFTkSuQmCC;" vertex="1" parent="7">
                    <mxGeometry x="470" y="75" width="212" height="212" as="geometry"/>
                </mxCell>
            </root>
        </mxGraphModel>
    </diagram>
</mxfile>